<svg width="28" height="28" viewBox="0 0 28 28" fill="none" xmlns="http://www.w3.org/2000/svg">
<path d="M2.625 21.875C8.84987 21.8699 15.0477 22.6942 21.0548 24.3262C21.903 24.5572 22.75 23.9272 22.75 23.0475V21.875M4.375 5.25V6.125C4.375 6.35706 4.28281 6.57962 4.11872 6.74372C3.95462 6.90781 3.73206 7 3.5 7H2.625M2.625 7V6.5625C2.625 5.838 3.213 5.25 3.9375 5.25H23.625M2.625 7V17.5M23.625 5.25V6.125C23.625 6.608 24.017 7 24.5 7H25.375M23.625 5.25H24.0625C24.787 5.25 25.375 5.838 25.375 6.5625V17.9375C25.375 18.662 24.787 19.25 24.0625 19.25H23.625M2.625 17.5V17.9375C2.625 18.2856 2.76328 18.6194 3.00942 18.8656C3.25556 19.1117 3.5894 19.25 3.9375 19.25H4.375M2.625 17.5H3.5C3.73206 17.5 3.95462 17.5922 4.11872 17.7563C4.28281 17.9204 4.375 18.1429 4.375 18.375V19.25M23.625 19.25V18.375C23.625 18.1429 23.7172 17.9204 23.8813 17.7563C24.0454 17.5922 24.2679 17.5 24.5 17.5H25.375M23.625 19.25H4.375M17.5 12.25C17.5 13.1783 17.1313 14.0685 16.4749 14.7249C15.8185 15.3813 14.9283 15.75 14 15.75C13.0717 15.75 12.1815 15.3813 11.5251 14.7249C10.8687 14.0685 10.5 13.1783 10.5 12.25C10.5 11.3217 10.8687 10.4315 11.5251 9.77513C12.1815 9.11875 13.0717 8.75 14 8.75C14.9283 8.75 15.8185 9.11875 16.4749 9.77513C17.1313 10.4315 17.5 11.3217 17.5 12.25ZM21 12.25H21.0093V12.2593H21V12.25ZM7 12.25H7.00933V12.2593H7V12.25Z" stroke="#1A1A1A" stroke-width="1.5" stroke-linecap="round" stroke-linejoin="round"/>
</svg>
